#!OML:ASF F:\VICON\USERDATA\INSTALL\rory3\rory3.ASF
:FULLY-SPECIFIED
:DEGREES
46
root -0.21933860446982695 16.95116437491024 16.337913632817976 3.3160854464866465 -3.2877866094965804 -5.6374649053107735
lfemur -24.997532797049562 7.576057449444313 -9.531381424205284
ltibia 101.77404375129149
lfoot 3.400760451470501 -6.2706167033669855
ltoes -2.5882961816866503
rfemur -21.460026151576212 4.948857323710179 36.08761001237349
rtibia 57.56669889159916
rfoot -19.425877449068807 -18.134501076065227
rtoes 0.3139884104756794
lowerback 17.50521739223274 0.6588620822390225 3.4379761382131067
upperback -0.06285602740349128 1.9198071758757307 3.9585115140416165
thorax -10.218863919241238 0.8389460140207237 1.7266872425868458
lowerneck -22.299482594310792 -2.9537155171848983 -1.4348653156446831
upperneck 12.526753408080806 -3.7314048570557605 1.4989120278187047
head 7.487145016189405 -1.7144443938113436 0.1796950406560085
lclavicle -1.5599843605879124e-15 1.906349508163583e-15
lhumerus -50.739450963120355 -14.917337705184808 99.94514698589758
lradius 95.84390037969025
lwrist 32.97889671577178
lhand -25.24446723198074 2.902171658182626
lfingers 7.12502
lthumb 1.2755167298755907 32.87869726055133
rclavicle -1.5599843605879124e-15 1.906349508163583e-15
rhumerus -44.41106049564572 10.10944305646373 -95.61080743962411
rradius 107.30313545938257
rwrist -9.465297304109948
rhand -17.347260359704443 39.523925713156835
rfingers 7.12502
rthumb 8.899644117733171 9.444554491483611
47
root -0.24412666968268584 16.99497444798225 16.706838225044287 3.5249610383434926 -2.4632066220129287 -5.651136160773051
lfemur -30.2156437367669 7.297124584281258 -10.153450189044133
ltibia 100.67955148240574
lfoot 0.7979589779735272 -5.2951195213366
ltoes -4.605116792671062
rfemur -17.812549853253785 4.353797454289141 35.974805770313154
rtibia 55.992782313866016
rfoot -19.482767467798254 -18.018299549491662
rtoes -4.0796269151359486
lowerback 17.27194336788316 0.8811023892485068 3.5806261748683017
upperback -0.17507875130661632 2.2376704157778375 3.76376900086482
thorax -10.168134311965046 0.972410923439646 1.278492799036208
lowerneck -22.394092805244558 -3.3081927352524643 -1.5181158151765322
upperneck 12.455824526472075 -4.23775592036924 1.7653455883706521
head 7.485358818768788 -1.9320367365700624 0.2373623527583691
lclavicle -1.8713073233380426e-15 1.6809753217428292e-15
lhumerus -53.09840933276939 -15.538501060475644 100.38473532858357
lradius 97.4211880473352
lwrist 33.28150257936734
lhand -24.460534086713885 2.3936580624397195
lfingers 7.12502
lthumb 2.032593511531177 32.35430807157989
rclavicle -1.8713073233380426e-15 1.6809753217428292e-15
rhumerus -42.68944609647348 10.901172682356817 -95.29620345263056
rradius 108.73050585205294
rwrist -9.802961619212791
rhand -17.35975694894056 39.59776827332601
rfingers 7.12502
rthumb 8.88759374925685 9.530385547768681
48
root -0.2323492435811862 17.139696412716535 17.70697131964838 3.934944409528698 -1.5457624461965889 -5.619125581282577
lfemur -33.94148764723314 6.567638928418974 -10.776029704154272
ltibia 99.30424235684461
lfoot -0.20913605101134636 -4.550312856183502
ltoes -5.21999761411641
rfemur -13.463995802304577 3.726779611797826 36.178197815173505
rtibia 53.979761514752354
rfoot -17.975048253059143 -16.507784602066824
rtoes -7.984185065336556
lowerback 16.9734538689445 1.10523837874831 4.113617766030082
upperback -0.34707308852521235 2.6045634709666237 3.6098034284811433
thorax -10.070813694599256 1.1131196727526451 0.7120656676194478
lowerneck -22.273495907847693 -3.6119363965516795 -1.5690470395230578
upperneck 12.537629123878748 -4.666827579890551 1.9564063093462338
head 7.51138721365262 -2.125733897207293 0.26087852146776663
lclavicle -1.2701984936945966e-15 2.115858437946138e-15
lhumerus -55.02951057607128 -15.699927623157969 100.78028529666126
lradius 99.23543671091865
lwrist 33.92881256881687
lhand -24.109787643730307 2.736951022837414
lfingers 7.12502
lthumb 2.3712813489380897 32.69003357722913
rclavicle -1.2701984936945966e-15 2.115858437946138e-15
rhumerus -41.21483081613765 11.661961809962621 -94.72992676747532
rradius 110.7461762132071
rwrist -10.160797990844511
rhand -17.222448833214266 39.9370795540423
rfingers 7.12502
rthumb 9.020253337481677 9.833256943331554
49
root -0.19729975092107419 17.311349556139266 19.06368073330459 4.071559902432377 -0.5671389182959604 -5.57432448049378
lfemur -36.68566981471842 5.636858503890475 -11.486820018454935
ltibia 96.49249114149046
lfoot -1.3159291060747127 -3.7361585910473876
ltoes -7.389607528901626
rfemur -8.81074814169294 3.1358034258924787 36.230823283472304
rtibia 51.84164147918775
rfoot -14.947994362871198 -14.026037794489405
rtoes -10.369784360695494
lowerback 16.724892844522362 1.3378347541471594 4.6800103712794945
upperback -0.5582687891433876 3.0038927610632937 3.4150128129570576
thorax -10.028541878580556 1.2622967479374907 0.097972402282693
lowerneck -22.012039480241654 -3.922841474052951 -1.652953454428427
upperneck 12.7946690202835 -5.099608948583491 2.152376609879361
head 7.570389286515836 -2.3233519688325175 0.2935990082941234
lclavicle -6.361487140775411e-16 2.576274943345975e-15
lhumerus -56.78789568096751 -15.73307225488437 101.0097132454236
lradius 101.25695734822219
lwrist 34.398289766517
lhand -23.076373982918575 2.3608472597226524
lfingers 7.12502
lthumb 3.3692482537580113 32.29073940235536
rclavicle -6.361487140775411e-16 2.576274943345975e-15
rhumerus -39.982423824433695 11.977256629470023 -94.23741160621537
rradius 112.58437795440337
rwrist -10.47282923802834
rhand -17.28051108070314 40.13165853374324
rfingers 7.12502
rthumb 8.964319782009994 10.103138531600225
50
root -0.19176106458280506 17.49843061865576 19.276058611005304 4.1017962898300055 0.24270375658362164 -5.700977346911671
lfemur -39.609668594985706 4.157403443840961 -12.586666299010098
ltibia 91.06330968039659
lfoot -2.5889721225931215 -3.76473198049891
ltoes -8.673336773629233
rfemur -4.620091703995209 2.3113087945508397 35.987986535689004
rtibia 47.41251138135098
rfoot -10.371828196851343 -11.02047100706338
rtoes -11.71020820609041
lowerback 16.238514202553194 1.4856398783645084 5.171676467587152
upperback -0.7962302608349423 3.2582027627066843 3.134853868485343
thorax -9.911483749321194 1.3497523973547831 -0.7673634652566464
lowerneck -21.741228847148246 -4.2732355010917935 -1.7344197530672951
upperneck 13.086907293318724 -5.614015165156377 2.290024088897127
head 7.632699814870739 -2.555579836309897 0.29720920531858513
lclavicle -1.2288608727415917e-15 2.1451386762760825e-15
lhumerus -59.518935689014185 -15.288331408319928 100.8489699637817
lradius 102.6342966176263
lwrist 34.592427566191965
lhand -22.904590861678717 2.4161433451432197
lfingers 7.12502
lthumb 3.535090391328092 32.336630877221474
rclavicle -1.2288608727415913e-15 2.1451386762760825e-15
rhumerus -39.45245490873578 11.940947973613628 -93.8075974973745
rradius 113.78001933805541
rwrist -10.64147206399794
rhand -17.245862320824905 40.280111445202486
rfingers 7.12502
rthumb 8.998154092178181 10.27911164059041
